<?xml version="1.0" encoding="utf-8"?>
<!-- Generator: Adobe Illustrator 25.4.1, SVG Export Plug-In . SVG Version: 6.00 Build 0)  -->
<svg version="1.1" id="Layer_1" xmlns="http://www.w3.org/2000/svg" xmlns:xlink="http://www.w3.org/1999/xlink" x="0px" y="0px"
	 viewBox="0 0 512 512" style="enable-background:new 0 0 512 512;" xml:space="preserve">
<style type="text/css">
	.st0{opacity:0.6;fill:#828282;}
</style>
<path class="st0" d="M288,138.7c0,17.7-14.3,32-32,32s-32-14.3-32-32s14.3-32,32-32S288,121,288,138.7z M512,405.3V263.3
	c1.7-136.4-102.2-251-238.2-262.7C132.8-9.3,10.5,97.1,0.6,238.1c-0.8,12-0.8,24.1,0,36.1C10,409.8,129.7,512,279.1,512h126.2
	C464.2,511.9,511.9,464.2,512,405.3z M270.9,43.2c113.6,10,200.1,106.1,198.4,220.1v142.1c0,35.3-28.7,64-64,64H279.1
	c-128.7,0-227.9-83.2-235.9-198.1c-8.4-117.5,80-219.6,197.5-228.1c5.2-0.4,10.4-0.6,15.6-0.5C261.2,42.7,266.1,42.9,270.9,43.2z
	 M298.7,384V256c0-23.6-19.1-42.7-42.7-42.7h-21.3c-11.8,0-21.3,9.6-21.3,21.3s9.6,21.3,21.3,21.3H256v128
	c0,11.8,9.6,21.3,21.3,21.3S298.7,395.8,298.7,384z"/>
</svg>
