<?xml version="1.0" encoding="utf-8"?>
<!-- Generator: Adobe Illustrator 25.4.1, SVG Export Plug-In . SVG Version: 6.00 Build 0)  -->
<svg version="1.1" id="Layer_1" xmlns="http://www.w3.org/2000/svg" xmlns:xlink="http://www.w3.org/1999/xlink" x="0px" y="0px"
	 viewBox="0 0 512 512" style="enable-background:new 0 0 512 512;" xml:space="preserve">
<style type="text/css">
	.st0{fill:#828282;}
</style>
<path class="st0" d="M352,362.7c-30.3,0-57.5,18.4-69,46.4c-17.7-4.9-36.3-4.9-54,0c-15.7-38.1-59.3-56.2-97.3-40.5
	c-38.1,15.7-56.2,59.3-40.5,97.3s59.3,56.2,97.3,40.5c22.9-9.5,39.6-29.7,44.6-54c7.3-2.7,15.1-4.1,22.9-4.4
	c7.8,0.3,15.5,1.8,22.9,4.4c8.3,40.4,47.8,66.4,88.2,58c40.4-8.3,66.4-47.8,58-88.2C418,387.6,387.4,362.7,352,362.7z M160,469.3
	c-17.7,0-32-14.3-32-32s14.3-32,32-32s32,14.3,32,32S177.7,469.3,160,469.3z M352,469.3c-17.7,0-32-14.3-32-32s14.3-32,32-32
	s32,14.3,32,32S369.7,469.3,352,469.3z M426.1,185.1C420.5,13.1,326.4,0.6,322.2,0.1C321.5,0,320.7,0,320,0
	c-18.5,0.7-36.4,6.8-51.5,17.5c-7.5,5.2-17.4,5.2-24.9,0C228.4,6.8,210.5,0.7,192,0c-0.7,0-1.4,0-2.1,0.1
	C185.7,0.6,91.7,13.1,86,185.1C57.5,194.6,0,218.5,0,256c0,78.7,132.1,85.3,256,85.3s256-6.6,256-85.3
	C512,218.5,454.5,194.6,426.1,185.1z M193.2,42.8c9.3,1,18.2,4.3,25.9,9.6c22.2,15.5,51.7,15.5,73.8,0c7.6-5.3,16.5-8.6,25.7-9.6
	c9.5,2.3,62.1,20.6,65.2,146.3c-40.1,18-83.9,26.3-127.9,24.3c-43.9,2-87.7-6.3-127.9-24.2C131.3,62.3,184.7,44.8,193.2,42.8z
	 M256,298.7c-176.3,0-213.3-23.2-213.6-40.9c16.9-16.6,38-28.2,61-33.6c47.3,23.4,99.8,34.4,152.6,31.8
	c52.7,2.5,105.2-8.4,152.6-31.8c22.5,5.6,43.3,16.5,60.8,31.8C469.3,275.5,432.3,298.7,256,298.7z"/>
</svg>
