<?xml version="1.0" encoding="utf-8"?>
<!-- Generator: Adobe Illustrator 25.4.1, SVG Export Plug-In . SVG Version: 6.00 Build 0)  -->
<svg version="1.1" id="Layer_1" xmlns="http://www.w3.org/2000/svg" xmlns:xlink="http://www.w3.org/1999/xlink" x="0px" y="0px"
	 viewBox="0 0 512 512" style="enable-background:new 0 0 512 512;" xml:space="preserve">
<style type="text/css">
	.st0{fill:#828282;}
</style>
<path class="st0" d="M85.3,128c-17,0-33.3-6.7-45.3-18.8L7.1,79.9c-8.8-7.8-9.6-21.3-1.7-30.1s21.3-9.6,30.1-1.7l0,0l33.8,30.2
	c7.8,8.8,21.3,9.6,30.1,1.7c0.3-0.3,0.6-0.6,0.9-0.9l76.9-73.2c8.8-7.8,22.3-7.1,30.1,1.7c7.5,8.4,7.2,21.1-0.7,29.1l-76.6,72.8
	C118.2,121.4,102.1,128.1,85.3,128L85.3,128z M512,85.3c0-11.8-9.6-21.3-21.3-21.3H277.3c-11.8,0-21.3,9.6-21.3,21.3
	s9.6,21.3,21.3,21.3h213.3C502.4,106.7,512,97.1,512,85.3z M130.1,280.3l76.6-72.8c8.8-7.8,9.6-21.3,1.7-30.1
	c-7.8-8.8-21.3-9.6-30.1-1.7c-0.4,0.3-0.7,0.6-1,1l-76.8,73.2c-8.4,8.1-21.7,8.1-30.2,0l-33.9-33.8c-8.5-8.2-22-8-30.2,0.5
	c-8,8.3-8,21.4,0,29.6l33.8,33.8C64.9,304.8,105.2,304.9,130.1,280.3L130.1,280.3z M512,256c0-11.8-9.6-21.3-21.3-21.3H277.3
	c-11.8,0-21.3,9.6-21.3,21.3c0,11.8,9.6,21.3,21.3,21.3h213.3C502.4,277.3,512,267.8,512,256z M130.1,450.9l76.5-72.8
	c8.8-7.8,9.6-21.3,1.7-30.1c-7.8-8.8-21.3-9.6-30.1-1.7c-0.4,0.3-0.7,0.6-1,1l-76.8,73.2c-8.3,8.4-21.8,8.4-30.2,0.1
	c-0.3-0.3-0.6-0.6-0.9-0.9l-33.8-30.2c-8.8-7.8-22.3-7.1-30.1,1.7c-7.8,8.8-7.1,22.3,1.7,30.1l32.9,29.3
	C64.9,475.4,105.2,475.6,130.1,450.9L130.1,450.9z M512,426.7c0-11.8-9.6-21.3-21.3-21.3H277.3c-11.8,0-21.3,9.6-21.3,21.3
	c0,11.8,9.6,21.3,21.3,21.3h213.3C502.4,448,512,438.4,512,426.7z"/>
</svg>
