<?xml version="1.0" encoding="utf-8"?>
<!-- Generator: Adobe Illustrator 25.4.1, SVG Export Plug-In . SVG Version: 6.00 Build 0)  -->
<svg version="1.1" id="Layer_1" xmlns="http://www.w3.org/2000/svg" xmlns:xlink="http://www.w3.org/1999/xlink" x="0px" y="0px"
	 viewBox="0 0 512 512" style="enable-background:new 0 0 512 512;" xml:space="preserve">
<style type="text/css">
	.st0{fill:#828282;}
</style>
<path class="st0" d="M341.3,128c11.8,0,21.3,9.6,21.3,21.3s-9.6,21.3-21.3,21.3H170.7c-11.8,0-21.3-9.6-21.3-21.3
	s9.6-21.3,21.3-21.3H341.3z M505.7,505.7c-8.3,8.3-21.8,8.3-30.2,0l-51.3-51.3c-15.2,9.7-32.9,14.9-50.9,14.9c-53,0-96-43-96-96
	s43-96,96-96s96,43,96,96l0,0c0,18-5.2,35.7-14.9,50.9l51.3,51.3C514.1,483.9,514.1,497.4,505.7,505.7z M373.3,426.7
	c29.5,0,53.3-23.9,53.3-53.3S402.8,320,373.3,320S320,343.9,320,373.3S343.9,426.7,373.3,426.7z M277.3,469.3h-128
	c-35.3,0-64-28.7-64-64V106.7c0-35.3,28.7-64,64-64h256c11.8,0,21.3,9.6,21.3,21.3v170.7c0,11.8,9.6,21.3,21.3,21.3
	c11.8,0,21.3-9.6,21.3-21.3V64c0-35.3-28.7-64-64-64h-256C90.5,0.1,42.7,47.8,42.7,106.7v298.7c0.1,58.9,47.8,106.6,106.7,106.7h128
	c11.8,0,21.3-9.6,21.3-21.3C298.7,478.9,289.1,469.3,277.3,469.3z"/>
</svg>
