<?xml version="1.0" encoding="utf-8"?>
<!-- Generator: Adobe Illustrator 25.4.1, SVG Export Plug-In . SVG Version: 6.00 Build 0)  -->
<svg version="1.1" id="Outline" xmlns="http://www.w3.org/2000/svg" xmlns:xlink="http://www.w3.org/1999/xlink" x="0px" y="0px"
	 viewBox="0 0 512 512" style="enable-background:new 0 0 512 512;" xml:space="preserve">
<style type="text/css">
	.st0{fill:#828282;}
</style>
<path class="st0" d="M396.4,45.7L262.7,1.1c-4.4-1.5-9.1-1.5-13.5,0L115.6,45.7c-43.6,14.5-73,55.3-72.9,101.2V256
	c0,161.3,196.3,250.5,204.7,254.2c5.5,2.4,11.8,2.4,17.3,0c8.4-3.7,204.7-92.8,204.7-254.2V146.8C469.4,100.9,440,60.1,396.4,45.7z
	 M426.7,256c0,116.4-134.8,192.7-170.7,211c-35.9-18.2-170.7-94.3-170.7-211V146.8c0-27.6,17.6-52,43.8-60.7L256,43.8l126.9,42.3
	c26.1,8.7,43.8,33.2,43.8,60.7V256z"/>
<path class="st0" d="M326.4,177.1l-89.3,89.6l-47.9-49.9c-8-8.7-21.4-9.3-30.1-1.3c-8.7,8-9.3,21.4-1.3,30.1
	c0.2,0.3,0.5,0.5,0.7,0.8l49.2,51.2c7.4,8,17.8,12.6,28.7,12.8h0.7c10.7,0,20.9-4.2,28.5-11.8l91.1-91.1c8.4-8.4,8.4-21.9,0-30.3
	C348.3,168.7,334.8,168.7,326.4,177.1L326.4,177.1z"/>
</svg>
