<?xml version="1.0" encoding="utf-8"?>
<!-- Generator: Adobe Illustrator 25.4.1, SVG Export Plug-In . SVG Version: 6.00 Build 0)  -->
<svg version="1.1" id="Layer_1" xmlns="http://www.w3.org/2000/svg" xmlns:xlink="http://www.w3.org/1999/xlink" x="0px" y="0px"
	 viewBox="0 0 512 512" style="enable-background:new 0 0 512 512;" xml:space="preserve">
<style type="text/css">
	.st0{opacity:0.58;fill:#828282;}
</style>
<path class="st0" d="M309.3,149.3c-19.9-0.3-39.1,7.3-53.3,21.1c-30.7-28.7-78.9-27-107.6,3.7c-13.7,14.6-21,34.1-20.4,54.1
	c0,69.5,104,143.7,115.8,151.9c7.3,5.1,17,5.1,24.3,0C280,372,384,297.7,384,228.3C385.1,185.9,351.7,150.6,309.3,149.3z M256,336.3
	c-37.1-28.4-85.3-75.9-85.3-108c-1.6-42.8,62.1-51.2,64-5.2v11.6c0,11.8,9.6,21.3,21.3,21.3c11.8,0,21.3-9.6,21.3-21.3V223
	c1.9-45.9,65.6-37.5,64,5.2C341.3,260.3,293.1,307.9,256,336.3z M273.8,0.6C132.8-9.3,10.5,97.1,0.6,238.1c-0.8,12-0.8,24.1,0,36.1
	C10,409.8,129.7,512,279.1,512h126.2c58.9-0.1,106.6-47.8,106.7-106.7V263.3C513.6,126.8,409.8,12.3,273.8,0.6z M469.3,405.3
	c0,35.3-28.7,64-64,64H279.1c-128.7,0-227.9-83.2-235.9-198.1c-8.4-117.5,80-219.6,197.5-228.1c10.1-0.7,20.2-0.7,30.2,0
	c113.6,10,200.1,106.1,198.4,220.1V405.3z"/>
</svg>
