<?xml version="1.0" encoding="utf-8"?>
<!-- Generator: Adobe Illustrator 25.4.1, SVG Export Plug-In . SVG Version: 6.00 Build 0)  -->
<svg version="1.1" id="Layer_1" xmlns="http://www.w3.org/2000/svg" xmlns:xlink="http://www.w3.org/1999/xlink" x="0px" y="0px"
	 viewBox="0 0 512 512" style="enable-background:new 0 0 512 512;" xml:space="preserve">
<style type="text/css">
	.st0{opacity:0.6;fill:#828282;}
</style>
<path class="st0" d="M256,512C114.6,512,0,397.4,0,256S114.6,0,256,0s256,114.6,256,256C511.8,397.3,397.3,511.8,256,512z M256,42.7
	C138.2,42.7,42.7,138.2,42.7,256S138.2,469.3,256,469.3S469.3,373.8,469.3,256C469.2,138.2,373.8,42.8,256,42.7z M376.9,335.9
	c8.8-7.8,9.6-21.3,1.7-30.1c-7.8-8.8-21.3-9.6-30.1-1.7l0,0c-26.1,22-58.5,35-92.5,37.3c-34-2.3-66.4-15.3-92.5-37.2
	c-8.8-7.8-22.3-7.1-30.1,1.7s-7.1,22.3,1.7,30.1C169,364.9,211.5,381.8,256,384C300.5,381.8,343,364.9,376.9,335.9z M128,213.3
	c0,21.3,19.1,21.3,42.7,21.3s42.7,0,42.7-21.3c0-23.6-19.1-42.7-42.7-42.7S128,189.8,128,213.3z M298.7,213.3
	c0,21.3,19.1,21.3,42.7,21.3s42.7,0,42.7-21.3c0-23.6-19.1-42.7-42.7-42.7C317.8,170.7,298.7,189.8,298.7,213.3z"/>
</svg>
