<?xml version="1.0" encoding="utf-8"?>
<!-- Generator: Adobe Illustrator 25.4.1, SVG Export Plug-In . SVG Version: 6.00 Build 0)  -->
<svg version="1.1" id="Layer_1" xmlns="http://www.w3.org/2000/svg" xmlns:xlink="http://www.w3.org/1999/xlink" x="0px" y="0px"
	 viewBox="0 0 512 512" style="enable-background:new 0 0 512 512;" xml:space="preserve">
<style type="text/css">
	.st0{opacity:0.6;fill:#828282;}
</style>
<path class="st0" d="M465.1,119L315.7,18.2c-36-24.5-83.4-24.5-119.5,0L46.9,119C17.6,138.9,0,172,0,207.4v197.9
	C0.1,464.2,47.8,511.9,106.7,512h298.7c58.9-0.1,106.6-47.8,106.7-106.7V207.4C512,172,494.4,138.9,465.1,119z M469.3,405.3
	c0,35.3-28.7,64-64,64H106.7c-35.3,0-64-28.7-64-64V207.4c0-21.3,10.6-41.2,28.2-53.1L220.2,53.6c21.6-14.7,50-14.7,71.6,0
	l149.3,100.8c17.6,11.9,28.2,31.8,28.2,53.1V405.3z M256,149.5c-70.7,0-128,57.3-128,128c0,34,13.6,66.7,37.7,90.7l38.9,38.1
	c28.7,27.8,74.2,27.8,102.8,0l39.1-38.2c50-50,50-131,0-181C322.5,162.9,290,149.5,256,149.5z M316.5,337.6l-38.9,38.1
	c-12,11.6-31.1,11.6-43.2,0l-38.8-37.9c-33.3-33.3-33.3-87.4,0-120.7s87.4-33.3,120.7,0C349.6,250.4,349.7,304.3,316.5,337.6
	L316.5,337.6z M277.3,277.3c0,11.8-9.6,21.3-21.3,21.3c-11.8,0-21.3-9.6-21.3-21.3S244.2,256,256,256
	C267.8,256,277.3,265.6,277.3,277.3z"/>
</svg>
