<?xml version="1.0" encoding="utf-8"?>
<!-- Generator: Adobe Illustrator 25.4.1, SVG Export Plug-In . SVG Version: 6.00 Build 0)  -->
<svg version="1.1" id="Layer_1" xmlns="http://www.w3.org/2000/svg" xmlns:xlink="http://www.w3.org/1999/xlink" x="0px" y="0px"
	 viewBox="0 0 512 512" style="enable-background:new 0 0 512 512;" xml:space="preserve">
<style type="text/css">
	.st0{opacity:0.6;fill:#828282;}
</style>
<path class="st0" d="M512,207.4v197.9c-0.1,58.9-47.8,106.6-106.7,106.7H384c-11.8,0-21.3-9.6-21.3-21.3c0-11.8,9.6-21.3,21.3-21.3
	h21.3c35.3,0,64-28.7,64-64V207.4c0-21.3-10.6-41.2-28.2-53.1L291.8,53.6c-21.6-14.7-50-14.7-71.6,0L70.9,154.4
	c-17.6,11.9-28.2,31.8-28.2,53.1v197.9c0,35.3,28.7,64,64,64H128c11.8,0,21.3,9.6,21.3,21.3c0,11.8-9.6,21.3-21.3,21.3h-21.3
	C47.8,511.9,0.1,464.2,0,405.3V207.4C0,172,17.5,138.8,46.9,119L196.3,18.2c36-24.4,83.3-24.4,119.3,0L464.9,119
	C494.4,138.8,512,172,512,207.4z M405.3,320.1c0.1,39.6-15.6,77.6-43.7,105.6l-75,73.3c-17.1,16.5-44.2,16.5-61.2,0l-74.8-73.2
	c-58.4-58.2-58.6-152.8-0.3-211.2s152.8-58.6,211.2-0.3C389.5,242.4,405.3,280.5,405.3,320.1z M362.7,320.1
	c0-58.9-47.8-106.7-106.7-106.7s-106.7,47.8-106.7,106.7c0,28.3,11.2,55.4,31.2,75.4l74.7,73l76.4-73.2
	C351.6,375.5,362.8,348.4,362.7,320.1z M320,320c0,35.3-28.7,64-64,64s-64-28.7-64-64s28.7-64,64-64S320,284.7,320,320z"/>
</svg>
