<?xml version="1.0" encoding="utf-8"?>
<!-- Generator: Adobe Illustrator 25.4.1, SVG Export Plug-In . SVG Version: 6.00 Build 0)  -->
<svg version="1.1" id="Layer_1" xmlns="http://www.w3.org/2000/svg" xmlns:xlink="http://www.w3.org/1999/xlink" x="0px" y="0px"
	 viewBox="0 0 512 512" style="enable-background:new 0 0 512 512;" xml:space="preserve">
<style type="text/css">
	.st0{opacity:0.6;fill:#828282;}
</style>
<path class="st0" d="M256,213.3c-35.3,0-64-28.7-64-64s28.7-64,64-64s64,28.7,64,64S291.3,213.3,256,213.3z M191.3,325.3
	c11.4-35.7,49.7-55.4,85.4-44c20.9,6.7,37.3,23.1,44,44c2.9,11.4,14.6,18.3,26,15.3c11.4-2.9,18.3-14.6,15.3-26
	c-28-105.5-184.1-105.5-212,0c-3.2,11.3,3.4,23.1,14.8,26.3c11.3,3.2,23.1-3.4,26.3-14.8C191.2,325.9,191.2,325.6,191.3,325.3
	L191.3,325.3z M256.2,504.9c-10.5,0-20.7-3.9-28.5-10.9l-80-67.3H85.3C38.2,426.7,0,388.5,0,341.3v-256C0,38.2,38.2,0,85.3,0h341.3
	C473.8,0,512,38.2,512,85.3v256c0,47.1-38.2,85.3-85.3,85.3h-60.9l-82.1,67.8C276.1,501.2,266.3,504.9,256.2,504.9L256.2,504.9z
	 M85.3,42.7c-23.6,0-42.7,19.1-42.7,42.7v256c0,23.6,19.1,42.7,42.7,42.7h70.2c5,0,9.9,1.8,13.7,5l86.3,72.7l89-72.9
	c3.8-3.2,8.6-4.9,13.6-4.9h68.5c23.6,0,42.7-19.1,42.7-42.7v-256c0-23.6-19.1-42.7-42.7-42.7H85.3z"/>
</svg>
