<?xml version="1.0" encoding="utf-8"?>
<!-- Generator: Adobe Illustrator 25.4.1, SVG Export Plug-In . SVG Version: 6.00 Build 0)  -->
<svg version="1.1" id="Layer_1" xmlns="http://www.w3.org/2000/svg" xmlns:xlink="http://www.w3.org/1999/xlink" x="0px" y="0px"
	 viewBox="0 0 512 512" style="enable-background:new 0 0 512 512;" xml:space="preserve">
<style type="text/css">
	.st0{fill:#828282;}
</style>
<path class="st0" d="M160.1,512c-88.4-0.1-160-71.7-159.9-160.1c0-71.6,47.6-134.4,116.5-153.9c27-7.7,55.6-8.1,82.8-1L368.2,28.4
	C386.3,10.1,410.9-0.1,436.6,0l0,0C478.2,0,512,33.8,512,75.4c0.1,25.7-10.1,50.3-28.3,68.4l-14.3,14.3c-8,8-18.9,12.5-30.2,12.5
	h-33.8V192c0,23.6-19.1,42.7-42.7,42.7h-21.3v33.8c0,11.3-4.5,22.2-12.5,30.2L315,312.5c7.1,27.2,6.8,55.8-1,82.8
	c-17.9,62.9-72.1,108.7-137.1,115.8C171.3,511.7,165.7,512,160.1,512z M160.1,234.7c-64.8-0.1-117.4,52.4-117.4,117.2
	c-0.1,64.8,52.4,117.4,117.2,117.4c52.6,0.1,98.8-34.9,113.1-85.5c6.7-23.1,5.9-47.7-2.1-70.4c-2.7-7.7-0.7-16.3,5.1-22.1l22.8-22.8
	v-33.8c0-23.6,19.1-42.7,42.7-42.7h21.3v-21.3c0-23.6,19.1-42.7,42.7-42.7h33.8l14.3-14.3c10.2-10.1,15.9-23.9,15.8-38.2
	c0-18.1-14.7-32.7-32.7-32.8c-14.4,0-28.1,5.7-38.3,15.9L220.6,236.2c-5.8,5.8-14.4,7.7-22.1,5.1c-12.4-4.4-25.4-6.6-38.5-6.6H160.1
	z M106.7,384c0,11.8,9.6,21.3,21.3,21.3s21.3-9.6,21.3-21.3c0-11.8-9.6-21.3-21.3-21.3S106.7,372.2,106.7,384z"/>
</svg>
